<svg id="Layer_1" data-name="Layer 1" xmlns="http://www.w3.org/2000/svg" xmlns:xlink="http://www.w3.org/1999/xlink" viewBox="0 0 120 120"><defs><style>.cls-1{fill:url(#radial-gradient);}</style><radialGradient id="radial-gradient" cx="-30.21" cy="187.99" r="264.03" gradientUnits="userSpaceOnUse"><stop offset="0" stop-color="#a300ff"/><stop offset="1" stop-color="#f91600"/></radialGradient></defs><path class="cls-1" d="M101.52,1.91a1.91,1.91,0,0,0-3-1.58l-78.68,54a3.13,3.13,0,0,0-1.35,2.58c0,22.5-.56,26.5,2,34.35v0a41.53,41.53,0,0,0,81-12.82C101.52-2.24,101.56,45.61,101.52,1.91ZM50,72.24a2,2,0,0,1,.87-1.66L68.52,58.5a1,1,0,0,1,1-.06,1,1,0,0,1,.53.89V78.48a10.06,10.06,0,0,1-20.12,0Zm40.64,6.24a30.56,30.56,0,0,1-60.48,6.25c-.83-3.83-.67-4.93-.7-22.94a1.87,1.87,0,0,1,.81-1.54l7.35-5a1.05,1.05,0,0,1,1.07-.06,1,1,0,0,1,.55.92V78.53a20.82,20.82,0,0,0,41.64,0V40.22a1,1,0,0,0-.53-.89,1,1,0,0,0-1,.06l-27.74,19a1,1,0,0,1-1,.06,1,1,0,0,1-.53-.89V47.64a1.7,1.7,0,0,1,.74-1.41L89,20a1,1,0,0,1,1-.06,1,1,0,0,1,.53.89Z"/></svg>